<?xml version="1.0" encoding="utf-8" standalone="no"?>
<!DOCTYPE svg PUBLIC "-//W3C//DTD SVG 1.1//EN"
  "http://www.w3.org/Graphics/SVG/1.1/DTD/svg11.dtd">
<svg xmlns:xlink="http://www.w3.org/1999/xlink" width="576pt" height="432pt" viewBox="0 0 576 432" xmlns="http://www.w3.org/2000/svg" version="1.1">
 <metadata>
  <rdf:RDF xmlns:dc="http://purl.org/dc/elements/1.1/" xmlns:cc="http://creativecommons.org/ns#" xmlns:rdf="http://www.w3.org/1999/02/22-rdf-syntax-ns#">
   <cc:Work>
    <dc:type rdf:resource="http://purl.org/dc/dcmitype/StillImage"/>
    <dc:date>2022-10-16T16:32:10.551187</dc:date>
    <dc:format>image/svg+xml</dc:format>
    <dc:creator>
     <cc:Agent>
      <dc:title>Matplotlib v3.5.2, https://matplotlib.org/</dc:title>
     </cc:Agent>
    </dc:creator>
   </cc:Work>
  </rdf:RDF>
 </metadata>
 <defs>
  <style type="text/css">*{stroke-linejoin: round; stroke-linecap: butt}</style>
 </defs>
 <g id="figure_1">
  <g id="patch_1">
   <path d="M 0 432 
L 576 432 
L 576 0 
L 0 0 
z
" style="fill: #ffffff"/>
  </g>
  <g id="axes_1">
   <g id="patch_2">
    <path d="M 72 384.48 
L 518.4 384.48 
L 518.4 51.84 
L 72 51.84 
z
" style="fill: #ffffff"/>
   </g>
   <g id="matplotlib.axis_1">
    <g id="xtick_1">
     <g id="text_1">
      <!-- 0 -->
      <g style="fill: #262626" transform="translate(113.045326 398.637812)scale(0.1 -0.1)">
       <defs>
        <path id="Arial-BoldMT-30" d="M 1756 4600 
Q 2422 4600 2797 4125 
Q 3244 3563 3244 2259 
Q 3244 959 2794 391 
Q 2422 -78 1756 -78 
Q 1088 -78 678 436 
Q 269 950 269 2269 
Q 269 3563 719 4131 
Q 1091 4600 1756 4600 
z
M 1756 3872 
Q 1597 3872 1472 3770 
Q 1347 3669 1278 3406 
Q 1188 3066 1188 2259 
Q 1188 1453 1269 1151 
Q 1350 850 1473 750 
Q 1597 650 1756 650 
Q 1916 650 2041 751 
Q 2166 853 2234 1116 
Q 2325 1453 2325 2259 
Q 2325 3066 2244 3367 
Q 2163 3669 2039 3770 
Q 1916 3872 1756 3872 
z
" transform="scale(0.015625)"/>
       </defs>
       <use xlink:href="#Arial-BoldMT-30"/>
      </g>
     </g>
    </g>
    <g id="xtick_2">
     <g id="text_2">
      <!-- 10 -->
      <g style="fill: #262626" transform="translate(159.987437 398.637812)scale(0.1 -0.1)">
       <defs>
        <path id="Arial-BoldMT-31" d="M 2519 0 
L 1641 0 
L 1641 3309 
Q 1159 2859 506 2644 
L 506 3441 
Q 850 3553 1253 3867 
Q 1656 4181 1806 4600 
L 2519 4600 
L 2519 0 
z
" transform="scale(0.015625)"/>
       </defs>
       <use xlink:href="#Arial-BoldMT-31"/>
       <use xlink:href="#Arial-BoldMT-30" x="55.615234"/>
      </g>
     </g>
    </g>
    <g id="xtick_3">
     <g id="text_3">
      <!-- 20 -->
      <g style="fill: #262626" transform="translate(209.710016 398.637812)scale(0.1 -0.1)">
       <defs>
        <path id="Arial-BoldMT-32" d="M 3238 816 
L 3238 0 
L 159 0 
Q 209 463 459 877 
Q 709 1291 1447 1975 
Q 2041 2528 2175 2725 
Q 2356 2997 2356 3263 
Q 2356 3556 2198 3714 
Q 2041 3872 1763 3872 
Q 1488 3872 1325 3706 
Q 1163 3541 1138 3156 
L 263 3244 
Q 341 3969 753 4284 
Q 1166 4600 1784 4600 
Q 2463 4600 2850 4234 
Q 3238 3869 3238 3325 
Q 3238 3016 3127 2736 
Q 3016 2456 2775 2150 
Q 2616 1947 2200 1565 
Q 1784 1184 1673 1059 
Q 1563 934 1494 816 
L 3238 816 
z
" transform="scale(0.015625)"/>
       </defs>
       <use xlink:href="#Arial-BoldMT-32"/>
       <use xlink:href="#Arial-BoldMT-30" x="55.615234"/>
      </g>
     </g>
    </g>
    <g id="xtick_4">
     <g id="text_4">
      <!-- 30 -->
      <g style="fill: #262626" transform="translate(259.432596 398.637812)scale(0.1 -0.1)">
       <defs>
        <path id="Arial-BoldMT-33" d="M 241 1216 
L 1091 1319 
Q 1131 994 1309 822 
Q 1488 650 1741 650 
Q 2013 650 2198 856 
Q 2384 1063 2384 1413 
Q 2384 1744 2206 1937 
Q 2028 2131 1772 2131 
Q 1603 2131 1369 2066 
L 1466 2781 
Q 1822 2772 2009 2936 
Q 2197 3100 2197 3372 
Q 2197 3603 2059 3740 
Q 1922 3878 1694 3878 
Q 1469 3878 1309 3722 
Q 1150 3566 1116 3266 
L 306 3403 
Q 391 3819 561 4067 
Q 731 4316 1036 4458 
Q 1341 4600 1719 4600 
Q 2366 4600 2756 4188 
Q 3078 3850 3078 3425 
Q 3078 2822 2419 2463 
Q 2813 2378 3048 2084 
Q 3284 1791 3284 1375 
Q 3284 772 2843 347 
Q 2403 -78 1747 -78 
Q 1125 -78 715 280 
Q 306 638 241 1216 
z
" transform="scale(0.015625)"/>
       </defs>
       <use xlink:href="#Arial-BoldMT-33"/>
       <use xlink:href="#Arial-BoldMT-30" x="55.615234"/>
      </g>
     </g>
    </g>
    <g id="xtick_5">
     <g id="text_5">
      <!-- 40 -->
      <g style="fill: #262626" transform="translate(309.155175 398.637812)scale(0.1 -0.1)">
       <defs>
        <path id="Arial-BoldMT-34" d="M 1994 0 
L 1994 922 
L 119 922 
L 119 1691 
L 2106 4600 
L 2844 4600 
L 2844 1694 
L 3413 1694 
L 3413 922 
L 2844 922 
L 2844 0 
L 1994 0 
z
M 1994 1694 
L 1994 3259 
L 941 1694 
L 1994 1694 
z
" transform="scale(0.015625)"/>
       </defs>
       <use xlink:href="#Arial-BoldMT-34"/>
       <use xlink:href="#Arial-BoldMT-30" x="55.615234"/>
      </g>
     </g>
    </g>
    <g id="xtick_6">
     <g id="text_6">
      <!-- 50 -->
      <g style="fill: #262626" transform="translate(358.877754 398.637812)scale(0.1 -0.1)">
       <defs>
        <path id="Arial-BoldMT-35" d="M 284 1178 
L 1159 1269 
Q 1197 972 1381 798 
Q 1566 625 1806 625 
Q 2081 625 2272 848 
Q 2463 1072 2463 1522 
Q 2463 1944 2273 2155 
Q 2084 2366 1781 2366 
Q 1403 2366 1103 2031 
L 391 2134 
L 841 4519 
L 3163 4519 
L 3163 3697 
L 1506 3697 
L 1369 2919 
Q 1663 3066 1969 3066 
Q 2553 3066 2959 2641 
Q 3366 2216 3366 1538 
Q 3366 972 3038 528 
Q 2591 -78 1797 -78 
Q 1163 -78 763 262 
Q 363 603 284 1178 
z
" transform="scale(0.015625)"/>
       </defs>
       <use xlink:href="#Arial-BoldMT-35"/>
       <use xlink:href="#Arial-BoldMT-30" x="55.615234"/>
      </g>
     </g>
    </g>
    <g id="xtick_7">
     <g id="text_7">
      <!-- 60 -->
      <g style="fill: #262626" transform="translate(408.600334 398.637812)scale(0.1 -0.1)">
       <defs>
        <path id="Arial-BoldMT-36" d="M 3247 3459 
L 2397 3366 
Q 2366 3628 2234 3753 
Q 2103 3878 1894 3878 
Q 1616 3878 1423 3628 
Q 1231 3378 1181 2588 
Q 1509 2975 1997 2975 
Q 2547 2975 2939 2556 
Q 3331 2138 3331 1475 
Q 3331 772 2918 347 
Q 2506 -78 1859 -78 
Q 1166 -78 719 461 
Q 272 1000 272 2228 
Q 272 3488 737 4044 
Q 1203 4600 1947 4600 
Q 2469 4600 2811 4308 
Q 3153 4016 3247 3459 
z
M 1256 1544 
Q 1256 1116 1453 883 
Q 1650 650 1903 650 
Q 2147 650 2309 840 
Q 2472 1031 2472 1466 
Q 2472 1913 2297 2120 
Q 2122 2328 1859 2328 
Q 1606 2328 1431 2129 
Q 1256 1931 1256 1544 
z
" transform="scale(0.015625)"/>
       </defs>
       <use xlink:href="#Arial-BoldMT-36"/>
       <use xlink:href="#Arial-BoldMT-30" x="55.615234"/>
      </g>
     </g>
    </g>
    <g id="xtick_8">
     <g id="text_8">
      <!-- 70 -->
      <g style="fill: #262626" transform="translate(458.322913 398.637812)scale(0.1 -0.1)">
       <defs>
        <path id="Arial-BoldMT-37" d="M 272 3703 
L 272 4519 
L 3275 4519 
L 3275 3881 
Q 2903 3516 2518 2831 
Q 2134 2147 1932 1376 
Q 1731 606 1734 0 
L 888 0 
Q 909 950 1279 1937 
Q 1650 2925 2269 3703 
L 272 3703 
z
" transform="scale(0.015625)"/>
       </defs>
       <use xlink:href="#Arial-BoldMT-37"/>
       <use xlink:href="#Arial-BoldMT-30" x="55.615234"/>
      </g>
     </g>
    </g>
    <g id="xtick_9">
     <g id="text_9">
      <!-- 80 -->
      <g style="fill: #262626" transform="translate(508.045492 398.637812)scale(0.1 -0.1)">
       <defs>
        <path id="Arial-BoldMT-38" d="M 1025 2472 
Q 684 2616 529 2867 
Q 375 3119 375 3419 
Q 375 3931 733 4265 
Q 1091 4600 1750 4600 
Q 2403 4600 2764 4265 
Q 3125 3931 3125 3419 
Q 3125 3100 2959 2851 
Q 2794 2603 2494 2472 
Q 2875 2319 3073 2025 
Q 3272 1731 3272 1347 
Q 3272 713 2867 316 
Q 2463 -81 1791 -81 
Q 1166 -81 750 247 
Q 259 634 259 1309 
Q 259 1681 443 1992 
Q 628 2303 1025 2472 
z
M 1206 3356 
Q 1206 3094 1354 2947 
Q 1503 2800 1750 2800 
Q 2000 2800 2150 2948 
Q 2300 3097 2300 3359 
Q 2300 3606 2151 3754 
Q 2003 3903 1759 3903 
Q 1506 3903 1356 3753 
Q 1206 3603 1206 3356 
z
M 1125 1394 
Q 1125 1031 1311 828 
Q 1497 625 1775 625 
Q 2047 625 2225 820 
Q 2403 1016 2403 1384 
Q 2403 1706 2222 1901 
Q 2041 2097 1763 2097 
Q 1441 2097 1283 1875 
Q 1125 1653 1125 1394 
z
" transform="scale(0.015625)"/>
       </defs>
       <use xlink:href="#Arial-BoldMT-38"/>
       <use xlink:href="#Arial-BoldMT-30" x="55.615234"/>
      </g>
     </g>
    </g>
    <g id="text_10">
     <!-- Dmax -->
     <g style="fill: #262626" transform="translate(281.582031 411.769063)scale(0.1 -0.1)">
      <defs>
       <path id="Arial-BoldMT-44" d="M 463 4581 
L 2153 4581 
Q 2725 4581 3025 4494 
Q 3428 4375 3715 4072 
Q 4003 3769 4153 3330 
Q 4303 2891 4303 2247 
Q 4303 1681 4163 1272 
Q 3991 772 3672 463 
Q 3431 228 3022 97 
Q 2716 0 2203 0 
L 463 0 
L 463 4581 
z
M 1388 3806 
L 1388 772 
L 2078 772 
Q 2466 772 2638 816 
Q 2863 872 3011 1006 
Q 3159 1141 3253 1448 
Q 3347 1756 3347 2288 
Q 3347 2819 3253 3103 
Q 3159 3388 2990 3547 
Q 2822 3706 2563 3763 
Q 2369 3806 1803 3806 
L 1388 3806 
z
" transform="scale(0.015625)"/>
       <path id="Arial-BoldMT-6d" d="M 394 3319 
L 1203 3319 
L 1203 2866 
Q 1638 3394 2238 3394 
Q 2556 3394 2790 3262 
Q 3025 3131 3175 2866 
Q 3394 3131 3647 3262 
Q 3900 3394 4188 3394 
Q 4553 3394 4806 3245 
Q 5059 3097 5184 2809 
Q 5275 2597 5275 2122 
L 5275 0 
L 4397 0 
L 4397 1897 
Q 4397 2391 4306 2534 
Q 4184 2722 3931 2722 
Q 3747 2722 3584 2609 
Q 3422 2497 3350 2280 
Q 3278 2063 3278 1594 
L 3278 0 
L 2400 0 
L 2400 1819 
Q 2400 2303 2353 2443 
Q 2306 2584 2207 2653 
Q 2109 2722 1941 2722 
Q 1738 2722 1575 2612 
Q 1413 2503 1342 2297 
Q 1272 2091 1272 1613 
L 1272 0 
L 394 0 
L 394 3319 
z
" transform="scale(0.015625)"/>
       <path id="Arial-BoldMT-61" d="M 1116 2306 
L 319 2450 
Q 453 2931 781 3162 
Q 1109 3394 1756 3394 
Q 2344 3394 2631 3255 
Q 2919 3116 3036 2902 
Q 3153 2688 3153 2116 
L 3144 1091 
Q 3144 653 3186 445 
Q 3228 238 3344 0 
L 2475 0 
Q 2441 88 2391 259 
Q 2369 338 2359 363 
Q 2134 144 1878 34 
Q 1622 -75 1331 -75 
Q 819 -75 523 203 
Q 228 481 228 906 
Q 228 1188 362 1408 
Q 497 1628 739 1745 
Q 981 1863 1438 1950 
Q 2053 2066 2291 2166 
L 2291 2253 
Q 2291 2506 2166 2614 
Q 2041 2722 1694 2722 
Q 1459 2722 1328 2630 
Q 1197 2538 1116 2306 
z
M 2291 1594 
Q 2122 1538 1756 1459 
Q 1391 1381 1278 1306 
Q 1106 1184 1106 997 
Q 1106 813 1243 678 
Q 1381 544 1594 544 
Q 1831 544 2047 700 
Q 2206 819 2256 991 
Q 2291 1103 2291 1419 
L 2291 1594 
z
" transform="scale(0.015625)"/>
       <path id="Arial-BoldMT-78" d="M 38 0 
L 1234 1709 
L 88 3319 
L 1159 3319 
L 1747 2406 
L 2366 3319 
L 3397 3319 
L 2272 1747 
L 3500 0 
L 2422 0 
L 1747 1028 
L 1066 0 
L 38 0 
z
" transform="scale(0.015625)"/>
      </defs>
      <use xlink:href="#Arial-BoldMT-44"/>
      <use xlink:href="#Arial-BoldMT-6d" x="72.216797"/>
      <use xlink:href="#Arial-BoldMT-61" x="161.132812"/>
      <use xlink:href="#Arial-BoldMT-78" x="216.748047"/>
     </g>
    </g>
   </g>
   <g id="matplotlib.axis_2">
    <g id="ytick_1">
     <g id="text_11">
      <!-- 0.000 -->
      <g style="fill: #262626" transform="translate(39.978125 388.058906)scale(0.1 -0.1)">
       <defs>
        <path id="Arial-BoldMT-2e" d="M 459 0 
L 459 878 
L 1338 878 
L 1338 0 
L 459 0 
z
" transform="scale(0.015625)"/>
       </defs>
       <use xlink:href="#Arial-BoldMT-30"/>
       <use xlink:href="#Arial-BoldMT-2e" x="55.615234"/>
       <use xlink:href="#Arial-BoldMT-30" x="83.398438"/>
       <use xlink:href="#Arial-BoldMT-30" x="139.013672"/>
       <use xlink:href="#Arial-BoldMT-30" x="194.628906"/>
      </g>
     </g>
    </g>
    <g id="ytick_2">
     <g id="text_12">
      <!-- 0.025 -->
      <g style="fill: #262626" transform="translate(39.978125 347.670094)scale(0.1 -0.1)">
       <use xlink:href="#Arial-BoldMT-30"/>
       <use xlink:href="#Arial-BoldMT-2e" x="55.615234"/>
       <use xlink:href="#Arial-BoldMT-30" x="83.398438"/>
       <use xlink:href="#Arial-BoldMT-32" x="139.013672"/>
       <use xlink:href="#Arial-BoldMT-35" x="194.628906"/>
      </g>
     </g>
    </g>
    <g id="ytick_3">
     <g id="text_13">
      <!-- 0.050 -->
      <g style="fill: #262626" transform="translate(39.978125 307.281281)scale(0.1 -0.1)">
       <use xlink:href="#Arial-BoldMT-30"/>
       <use xlink:href="#Arial-BoldMT-2e" x="55.615234"/>
       <use xlink:href="#Arial-BoldMT-30" x="83.398438"/>
       <use xlink:href="#Arial-BoldMT-35" x="139.013672"/>
       <use xlink:href="#Arial-BoldMT-30" x="194.628906"/>
      </g>
     </g>
    </g>
    <g id="ytick_4">
     <g id="text_14">
      <!-- 0.075 -->
      <g style="fill: #262626" transform="translate(39.978125 266.892468)scale(0.1 -0.1)">
       <use xlink:href="#Arial-BoldMT-30"/>
       <use xlink:href="#Arial-BoldMT-2e" x="55.615234"/>
       <use xlink:href="#Arial-BoldMT-30" x="83.398438"/>
       <use xlink:href="#Arial-BoldMT-37" x="139.013672"/>
       <use xlink:href="#Arial-BoldMT-35" x="194.628906"/>
      </g>
     </g>
    </g>
    <g id="ytick_5">
     <g id="text_15">
      <!-- 0.100 -->
      <g style="fill: #262626" transform="translate(39.978125 226.503656)scale(0.1 -0.1)">
       <use xlink:href="#Arial-BoldMT-30"/>
       <use xlink:href="#Arial-BoldMT-2e" x="55.615234"/>
       <use xlink:href="#Arial-BoldMT-31" x="83.398438"/>
       <use xlink:href="#Arial-BoldMT-30" x="139.013672"/>
       <use xlink:href="#Arial-BoldMT-30" x="194.628906"/>
      </g>
     </g>
    </g>
    <g id="ytick_6">
     <g id="text_16">
      <!-- 0.125 -->
      <g style="fill: #262626" transform="translate(39.978125 186.114843)scale(0.1 -0.1)">
       <use xlink:href="#Arial-BoldMT-30"/>
       <use xlink:href="#Arial-BoldMT-2e" x="55.615234"/>
       <use xlink:href="#Arial-BoldMT-31" x="83.398438"/>
       <use xlink:href="#Arial-BoldMT-32" x="139.013672"/>
       <use xlink:href="#Arial-BoldMT-35" x="194.628906"/>
      </g>
     </g>
    </g>
    <g id="ytick_7">
     <g id="text_17">
      <!-- 0.150 -->
      <g style="fill: #262626" transform="translate(39.978125 145.72603)scale(0.1 -0.1)">
       <use xlink:href="#Arial-BoldMT-30"/>
       <use xlink:href="#Arial-BoldMT-2e" x="55.615234"/>
       <use xlink:href="#Arial-BoldMT-31" x="83.398438"/>
       <use xlink:href="#Arial-BoldMT-35" x="139.013672"/>
       <use xlink:href="#Arial-BoldMT-30" x="194.628906"/>
      </g>
     </g>
    </g>
    <g id="ytick_8">
     <g id="text_18">
      <!-- 0.175 -->
      <g style="fill: #262626" transform="translate(39.978125 105.337217)scale(0.1 -0.1)">
       <use xlink:href="#Arial-BoldMT-30"/>
       <use xlink:href="#Arial-BoldMT-2e" x="55.615234"/>
       <use xlink:href="#Arial-BoldMT-31" x="83.398438"/>
       <use xlink:href="#Arial-BoldMT-37" x="139.013672"/>
       <use xlink:href="#Arial-BoldMT-35" x="194.628906"/>
      </g>
     </g>
    </g>
    <g id="ytick_9">
     <g id="text_19">
      <!-- 0.200 -->
      <g style="fill: #262626" transform="translate(39.978125 64.948405)scale(0.1 -0.1)">
       <use xlink:href="#Arial-BoldMT-30"/>
       <use xlink:href="#Arial-BoldMT-2e" x="55.615234"/>
       <use xlink:href="#Arial-BoldMT-32" x="83.398438"/>
       <use xlink:href="#Arial-BoldMT-30" x="139.013672"/>
       <use xlink:href="#Arial-BoldMT-30" x="194.628906"/>
      </g>
     </g>
    </g>
    <g id="text_20">
     <!-- Frequency -->
     <g style="fill: #262626" transform="translate(33.873437 243.443594)rotate(-90)scale(0.1 -0.1)">
      <defs>
       <path id="Arial-BoldMT-46" d="M 472 0 
L 472 4581 
L 3613 4581 
L 3613 3806 
L 1397 3806 
L 1397 2722 
L 3309 2722 
L 3309 1947 
L 1397 1947 
L 1397 0 
L 472 0 
z
" transform="scale(0.015625)"/>
       <path id="Arial-BoldMT-72" d="M 1300 0 
L 422 0 
L 422 3319 
L 1238 3319 
L 1238 2847 
Q 1447 3181 1614 3287 
Q 1781 3394 1994 3394 
Q 2294 3394 2572 3228 
L 2300 2463 
Q 2078 2606 1888 2606 
Q 1703 2606 1575 2504 
Q 1447 2403 1373 2137 
Q 1300 1872 1300 1025 
L 1300 0 
z
" transform="scale(0.015625)"/>
       <path id="Arial-BoldMT-65" d="M 2381 1056 
L 3256 909 
Q 3088 428 2723 176 
Q 2359 -75 1813 -75 
Q 947 -75 531 491 
Q 203 944 203 1634 
Q 203 2459 634 2926 
Q 1066 3394 1725 3394 
Q 2466 3394 2894 2905 
Q 3322 2416 3303 1406 
L 1103 1406 
Q 1113 1016 1316 798 
Q 1519 581 1822 581 
Q 2028 581 2168 693 
Q 2309 806 2381 1056 
z
M 2431 1944 
Q 2422 2325 2234 2523 
Q 2047 2722 1778 2722 
Q 1491 2722 1303 2513 
Q 1116 2303 1119 1944 
L 2431 1944 
z
" transform="scale(0.015625)"/>
       <path id="Arial-BoldMT-71" d="M 2628 -1263 
L 2628 406 
Q 2456 184 2200 54 
Q 1944 -75 1647 -75 
Q 1081 -75 716 350 
Q 284 847 284 1697 
Q 284 2497 689 2945 
Q 1094 3394 1694 3394 
Q 2025 3394 2267 3253 
Q 2509 3113 2697 2828 
L 2697 3319 
L 3506 3319 
L 3506 -1263 
L 2628 -1263 
z
M 2656 1700 
Q 2656 2209 2448 2457 
Q 2241 2706 1928 2706 
Q 1609 2706 1395 2453 
Q 1181 2200 1181 1650 
Q 1181 1103 1387 861 
Q 1594 619 1897 619 
Q 2200 619 2428 891 
Q 2656 1163 2656 1700 
z
" transform="scale(0.015625)"/>
       <path id="Arial-BoldMT-75" d="M 2644 0 
L 2644 497 
Q 2463 231 2167 78 
Q 1872 -75 1544 -75 
Q 1209 -75 943 72 
Q 678 219 559 484 
Q 441 750 441 1219 
L 441 3319 
L 1319 3319 
L 1319 1794 
Q 1319 1094 1367 936 
Q 1416 778 1544 686 
Q 1672 594 1869 594 
Q 2094 594 2272 717 
Q 2450 841 2515 1023 
Q 2581 1206 2581 1919 
L 2581 3319 
L 3459 3319 
L 3459 0 
L 2644 0 
z
" transform="scale(0.015625)"/>
       <path id="Arial-BoldMT-6e" d="M 3478 0 
L 2600 0 
L 2600 1694 
Q 2600 2231 2544 2389 
Q 2488 2547 2361 2634 
Q 2234 2722 2056 2722 
Q 1828 2722 1647 2597 
Q 1466 2472 1398 2265 
Q 1331 2059 1331 1503 
L 1331 0 
L 453 0 
L 453 3319 
L 1269 3319 
L 1269 2831 
Q 1703 3394 2363 3394 
Q 2653 3394 2893 3289 
Q 3134 3184 3257 3021 
Q 3381 2859 3429 2653 
Q 3478 2447 3478 2063 
L 3478 0 
z
" transform="scale(0.015625)"/>
       <path id="Arial-BoldMT-63" d="M 3353 2338 
L 2488 2181 
Q 2444 2441 2289 2572 
Q 2134 2703 1888 2703 
Q 1559 2703 1364 2476 
Q 1169 2250 1169 1719 
Q 1169 1128 1367 884 
Q 1566 641 1900 641 
Q 2150 641 2309 783 
Q 2469 925 2534 1272 
L 3397 1125 
Q 3263 531 2881 228 
Q 2500 -75 1859 -75 
Q 1131 -75 698 384 
Q 266 844 266 1656 
Q 266 2478 700 2936 
Q 1134 3394 1875 3394 
Q 2481 3394 2839 3133 
Q 3197 2872 3353 2338 
z
" transform="scale(0.015625)"/>
       <path id="Arial-BoldMT-79" d="M 44 3319 
L 978 3319 
L 1772 963 
L 2547 3319 
L 3456 3319 
L 2284 125 
L 2075 -453 
Q 1959 -744 1854 -897 
Q 1750 -1050 1614 -1145 
Q 1478 -1241 1279 -1294 
Q 1081 -1347 831 -1347 
Q 578 -1347 334 -1294 
L 256 -606 
Q 463 -647 628 -647 
Q 934 -647 1081 -467 
Q 1228 -288 1306 -9 
L 44 3319 
z
" transform="scale(0.015625)"/>
      </defs>
      <use xlink:href="#Arial-BoldMT-46"/>
      <use xlink:href="#Arial-BoldMT-72" x="61.083984"/>
      <use xlink:href="#Arial-BoldMT-65" x="100"/>
      <use xlink:href="#Arial-BoldMT-71" x="155.615234"/>
      <use xlink:href="#Arial-BoldMT-75" x="216.699219"/>
      <use xlink:href="#Arial-BoldMT-65" x="277.783203"/>
      <use xlink:href="#Arial-BoldMT-6e" x="333.398438"/>
      <use xlink:href="#Arial-BoldMT-63" x="394.482422"/>
      <use xlink:href="#Arial-BoldMT-79" x="450.097656"/>
     </g>
    </g>
   </g>
   <g id="patch_3">
    <path d="M 116.571634 384.48 
L 123.716768 384.48 
L 123.716768 161.689756 
L 116.571634 161.689756 
z
" clip-path="url(#p1b3abe6404)" style="fill: #4c72b0; opacity: 0.4; stroke: #ffffff; stroke-linejoin: miter"/>
   </g>
   <g id="patch_4">
    <path d="M 123.716768 384.48 
L 130.861903 384.48 
L 130.861903 67.68 
L 123.716768 67.68 
z
" clip-path="url(#p1b3abe6404)" style="fill: #4c72b0; opacity: 0.4; stroke: #ffffff; stroke-linejoin: miter"/>
   </g>
   <g id="patch_5">
    <path d="M 130.861903 384.48 
L 138.007038 384.48 
L 138.007038 259.562927 
L 130.861903 259.562927 
z
" clip-path="url(#p1b3abe6404)" style="fill: #4c72b0; opacity: 0.4; stroke: #ffffff; stroke-linejoin: miter"/>
   </g>
   <g id="patch_6">
    <path d="M 138.007038 384.48 
L 145.152172 384.48 
L 145.152172 254.411707 
L 138.007038 254.411707 
z
" clip-path="url(#p1b3abe6404)" style="fill: #4c72b0; opacity: 0.4; stroke: #ffffff; stroke-linejoin: miter"/>
   </g>
   <g id="patch_7">
    <path d="M 145.152172 384.48 
L 152.297307 384.48 
L 152.297307 302.060488 
L 145.152172 302.060488 
z
" clip-path="url(#p1b3abe6404)" style="fill: #4c72b0; opacity: 0.4; stroke: #ffffff; stroke-linejoin: miter"/>
   </g>
   <g id="patch_8">
    <path d="M 152.297307 384.48 
L 159.442442 384.48 
L 159.442442 331.68 
L 152.297307 331.68 
z
" clip-path="url(#p1b3abe6404)" style="fill: #4c72b0; opacity: 0.4; stroke: #ffffff; stroke-linejoin: miter"/>
   </g>
   <g id="patch_9">
    <path d="M 159.442442 384.48 
L 166.587576 384.48 
L 166.587576 303.348293 
L 159.442442 303.348293 
z
" clip-path="url(#p1b3abe6404)" style="fill: #4c72b0; opacity: 0.4; stroke: #ffffff; stroke-linejoin: miter"/>
   </g>
   <g id="patch_10">
    <path d="M 166.587576 384.48 
L 173.732711 384.48 
L 173.732711 379.32878 
L 166.587576 379.32878 
z
" clip-path="url(#p1b3abe6404)" style="fill: #4c72b0; opacity: 0.4; stroke: #ffffff; stroke-linejoin: miter"/>
   </g>
   <g id="patch_11">
    <path d="M 173.732711 384.48 
L 180.877846 384.48 
L 180.877846 363.875122 
L 173.732711 363.875122 
z
" clip-path="url(#p1b3abe6404)" style="fill: #4c72b0; opacity: 0.4; stroke: #ffffff; stroke-linejoin: miter"/>
   </g>
   <g id="patch_12">
    <path d="M 180.877846 384.48 
L 188.02298 384.48 
L 188.02298 372.889756 
L 180.877846 372.889756 
z
" clip-path="url(#p1b3abe6404)" style="fill: #4c72b0; opacity: 0.4; stroke: #ffffff; stroke-linejoin: miter"/>
   </g>
   <g id="patch_13">
    <path d="M 188.02298 384.48 
L 195.168115 384.48 
L 195.168115 370.314146 
L 188.02298 370.314146 
z
" clip-path="url(#p1b3abe6404)" style="fill: #4c72b0; opacity: 0.4; stroke: #ffffff; stroke-linejoin: miter"/>
   </g>
   <g id="patch_14">
    <path d="M 195.168115 384.48 
L 202.31325 384.48 
L 202.31325 372.889756 
L 195.168115 372.889756 
z
" clip-path="url(#p1b3abe6404)" style="fill: #4c72b0; opacity: 0.4; stroke: #ffffff; stroke-linejoin: miter"/>
   </g>
   <g id="patch_15">
    <path d="M 202.31325 384.48 
L 209.458384 384.48 
L 209.458384 383.192195 
L 202.31325 383.192195 
z
" clip-path="url(#p1b3abe6404)" style="fill: #4c72b0; opacity: 0.4; stroke: #ffffff; stroke-linejoin: miter"/>
   </g>
   <g id="patch_16">
    <path d="M 209.458384 384.48 
L 216.603519 384.48 
L 216.603519 365.162927 
L 209.458384 365.162927 
z
" clip-path="url(#p1b3abe6404)" style="fill: #4c72b0; opacity: 0.4; stroke: #ffffff; stroke-linejoin: miter"/>
   </g>
   <g id="patch_17">
    <path d="M 216.603519 384.48 
L 223.748653 384.48 
L 223.748653 384.48 
L 216.603519 384.48 
z
" clip-path="url(#p1b3abe6404)" style="fill: #4c72b0; opacity: 0.4; stroke: #ffffff; stroke-linejoin: miter"/>
   </g>
   <g id="patch_18">
    <path d="M 223.748653 384.48 
L 230.893788 384.48 
L 230.893788 384.48 
L 223.748653 384.48 
z
" clip-path="url(#p1b3abe6404)" style="fill: #4c72b0; opacity: 0.4; stroke: #ffffff; stroke-linejoin: miter"/>
   </g>
   <g id="patch_19">
    <path d="M 230.893788 384.48 
L 238.038923 384.48 
L 238.038923 384.48 
L 230.893788 384.48 
z
" clip-path="url(#p1b3abe6404)" style="fill: #4c72b0; opacity: 0.4; stroke: #ffffff; stroke-linejoin: miter"/>
   </g>
   <g id="patch_20">
    <path d="M 238.038923 384.48 
L 245.184057 384.48 
L 245.184057 370.314146 
L 238.038923 370.314146 
z
" clip-path="url(#p1b3abe6404)" style="fill: #4c72b0; opacity: 0.4; stroke: #ffffff; stroke-linejoin: miter"/>
   </g>
   <g id="patch_21">
    <path d="M 245.184057 384.48 
L 252.329192 384.48 
L 252.329192 384.48 
L 245.184057 384.48 
z
" clip-path="url(#p1b3abe6404)" style="fill: #4c72b0; opacity: 0.4; stroke: #ffffff; stroke-linejoin: miter"/>
   </g>
   <g id="patch_22">
    <path d="M 252.329192 384.48 
L 259.474327 384.48 
L 259.474327 383.192195 
L 252.329192 383.192195 
z
" clip-path="url(#p1b3abe6404)" style="fill: #4c72b0; opacity: 0.4; stroke: #ffffff; stroke-linejoin: miter"/>
   </g>
   <g id="patch_23">
    <path d="M 259.474327 384.48 
L 266.619461 384.48 
L 266.619461 378.040976 
L 259.474327 378.040976 
z
" clip-path="url(#p1b3abe6404)" style="fill: #4c72b0; opacity: 0.4; stroke: #ffffff; stroke-linejoin: miter"/>
   </g>
   <g id="patch_24">
    <path d="M 266.619461 384.48 
L 273.764596 384.48 
L 273.764596 384.48 
L 266.619461 384.48 
z
" clip-path="url(#p1b3abe6404)" style="fill: #4c72b0; opacity: 0.4; stroke: #ffffff; stroke-linejoin: miter"/>
   </g>
   <g id="patch_25">
    <path d="M 273.764596 384.48 
L 280.909731 384.48 
L 280.909731 384.48 
L 273.764596 384.48 
z
" clip-path="url(#p1b3abe6404)" style="fill: #4c72b0; opacity: 0.4; stroke: #ffffff; stroke-linejoin: miter"/>
   </g>
   <g id="patch_26">
    <path d="M 280.909731 384.48 
L 288.054865 384.48 
L 288.054865 384.48 
L 280.909731 384.48 
z
" clip-path="url(#p1b3abe6404)" style="fill: #4c72b0; opacity: 0.4; stroke: #ffffff; stroke-linejoin: miter"/>
   </g>
   <g id="patch_27">
    <path d="M 288.054865 384.48 
L 295.2 384.48 
L 295.2 381.90439 
L 288.054865 381.90439 
z
" clip-path="url(#p1b3abe6404)" style="fill: #4c72b0; opacity: 0.4; stroke: #ffffff; stroke-linejoin: miter"/>
   </g>
   <g id="patch_28">
    <path d="M 295.2 384.48 
L 302.345135 384.48 
L 302.345135 384.48 
L 295.2 384.48 
z
" clip-path="url(#p1b3abe6404)" style="fill: #4c72b0; opacity: 0.4; stroke: #ffffff; stroke-linejoin: miter"/>
   </g>
   <g id="patch_29">
    <path d="M 302.345135 384.48 
L 309.490269 384.48 
L 309.490269 384.48 
L 302.345135 384.48 
z
" clip-path="url(#p1b3abe6404)" style="fill: #4c72b0; opacity: 0.4; stroke: #ffffff; stroke-linejoin: miter"/>
   </g>
   <g id="patch_30">
    <path d="M 309.490269 384.48 
L 316.635404 384.48 
L 316.635404 384.48 
L 309.490269 384.48 
z
" clip-path="url(#p1b3abe6404)" style="fill: #4c72b0; opacity: 0.4; stroke: #ffffff; stroke-linejoin: miter"/>
   </g>
   <g id="patch_31">
    <path d="M 316.635404 384.48 
L 323.780539 384.48 
L 323.780539 384.48 
L 316.635404 384.48 
z
" clip-path="url(#p1b3abe6404)" style="fill: #4c72b0; opacity: 0.4; stroke: #ffffff; stroke-linejoin: miter"/>
   </g>
   <g id="patch_32">
    <path d="M 323.780539 384.48 
L 330.925673 384.48 
L 330.925673 384.48 
L 323.780539 384.48 
z
" clip-path="url(#p1b3abe6404)" style="fill: #4c72b0; opacity: 0.4; stroke: #ffffff; stroke-linejoin: miter"/>
   </g>
   <g id="patch_33">
    <path d="M 330.925673 384.48 
L 338.070808 384.48 
L 338.070808 384.48 
L 330.925673 384.48 
z
" clip-path="url(#p1b3abe6404)" style="fill: #4c72b0; opacity: 0.4; stroke: #ffffff; stroke-linejoin: miter"/>
   </g>
   <g id="patch_34">
    <path d="M 338.070808 384.48 
L 345.215943 384.48 
L 345.215943 384.48 
L 338.070808 384.48 
z
" clip-path="url(#p1b3abe6404)" style="fill: #4c72b0; opacity: 0.4; stroke: #ffffff; stroke-linejoin: miter"/>
   </g>
   <g id="patch_35">
    <path d="M 345.215943 384.48 
L 352.361077 384.48 
L 352.361077 384.48 
L 345.215943 384.48 
z
" clip-path="url(#p1b3abe6404)" style="fill: #4c72b0; opacity: 0.4; stroke: #ffffff; stroke-linejoin: miter"/>
   </g>
   <g id="patch_36">
    <path d="M 352.361077 384.48 
L 359.506212 384.48 
L 359.506212 384.48 
L 352.361077 384.48 
z
" clip-path="url(#p1b3abe6404)" style="fill: #4c72b0; opacity: 0.4; stroke: #ffffff; stroke-linejoin: miter"/>
   </g>
   <g id="patch_37">
    <path d="M 359.506212 384.48 
L 366.651347 384.48 
L 366.651347 383.192195 
L 359.506212 383.192195 
z
" clip-path="url(#p1b3abe6404)" style="fill: #4c72b0; opacity: 0.4; stroke: #ffffff; stroke-linejoin: miter"/>
   </g>
   <g id="patch_38">
    <path d="M 366.651347 384.48 
L 373.796481 384.48 
L 373.796481 384.48 
L 366.651347 384.48 
z
" clip-path="url(#p1b3abe6404)" style="fill: #4c72b0; opacity: 0.4; stroke: #ffffff; stroke-linejoin: miter"/>
   </g>
   <g id="patch_39">
    <path d="M 373.796481 384.48 
L 380.941616 384.48 
L 380.941616 381.90439 
L 373.796481 381.90439 
z
" clip-path="url(#p1b3abe6404)" style="fill: #4c72b0; opacity: 0.4; stroke: #ffffff; stroke-linejoin: miter"/>
   </g>
   <g id="patch_40">
    <path d="M 380.941616 384.48 
L 388.08675 384.48 
L 388.08675 384.48 
L 380.941616 384.48 
z
" clip-path="url(#p1b3abe6404)" style="fill: #4c72b0; opacity: 0.4; stroke: #ffffff; stroke-linejoin: miter"/>
   </g>
   <g id="patch_41">
    <path d="M 388.08675 384.48 
L 395.231885 384.48 
L 395.231885 384.48 
L 388.08675 384.48 
z
" clip-path="url(#p1b3abe6404)" style="fill: #4c72b0; opacity: 0.4; stroke: #ffffff; stroke-linejoin: miter"/>
   </g>
   <g id="patch_42">
    <path d="M 395.231885 384.48 
L 402.37702 384.48 
L 402.37702 384.48 
L 395.231885 384.48 
z
" clip-path="url(#p1b3abe6404)" style="fill: #4c72b0; opacity: 0.4; stroke: #ffffff; stroke-linejoin: miter"/>
   </g>
   <g id="patch_43">
    <path d="M 402.37702 384.48 
L 409.522154 384.48 
L 409.522154 384.48 
L 402.37702 384.48 
z
" clip-path="url(#p1b3abe6404)" style="fill: #4c72b0; opacity: 0.4; stroke: #ffffff; stroke-linejoin: miter"/>
   </g>
   <g id="patch_44">
    <path d="M 409.522154 384.48 
L 416.667289 384.48 
L 416.667289 384.48 
L 409.522154 384.48 
z
" clip-path="url(#p1b3abe6404)" style="fill: #4c72b0; opacity: 0.4; stroke: #ffffff; stroke-linejoin: miter"/>
   </g>
   <g id="patch_45">
    <path d="M 416.667289 384.48 
L 423.812424 384.48 
L 423.812424 384.48 
L 416.667289 384.48 
z
" clip-path="url(#p1b3abe6404)" style="fill: #4c72b0; opacity: 0.4; stroke: #ffffff; stroke-linejoin: miter"/>
   </g>
   <g id="patch_46">
    <path d="M 423.812424 384.48 
L 430.957558 384.48 
L 430.957558 384.48 
L 423.812424 384.48 
z
" clip-path="url(#p1b3abe6404)" style="fill: #4c72b0; opacity: 0.4; stroke: #ffffff; stroke-linejoin: miter"/>
   </g>
   <g id="patch_47">
    <path d="M 430.957558 384.48 
L 438.102693 384.48 
L 438.102693 384.48 
L 430.957558 384.48 
z
" clip-path="url(#p1b3abe6404)" style="fill: #4c72b0; opacity: 0.4; stroke: #ffffff; stroke-linejoin: miter"/>
   </g>
   <g id="patch_48">
    <path d="M 438.102693 384.48 
L 445.247828 384.48 
L 445.247828 384.48 
L 438.102693 384.48 
z
" clip-path="url(#p1b3abe6404)" style="fill: #4c72b0; opacity: 0.4; stroke: #ffffff; stroke-linejoin: miter"/>
   </g>
   <g id="patch_49">
    <path d="M 445.247828 384.48 
L 452.392962 384.48 
L 452.392962 384.48 
L 445.247828 384.48 
z
" clip-path="url(#p1b3abe6404)" style="fill: #4c72b0; opacity: 0.4; stroke: #ffffff; stroke-linejoin: miter"/>
   </g>
   <g id="patch_50">
    <path d="M 452.392962 384.48 
L 459.538097 384.48 
L 459.538097 384.48 
L 452.392962 384.48 
z
" clip-path="url(#p1b3abe6404)" style="fill: #4c72b0; opacity: 0.4; stroke: #ffffff; stroke-linejoin: miter"/>
   </g>
   <g id="patch_51">
    <path d="M 459.538097 384.48 
L 466.683232 384.48 
L 466.683232 384.48 
L 459.538097 384.48 
z
" clip-path="url(#p1b3abe6404)" style="fill: #4c72b0; opacity: 0.4; stroke: #ffffff; stroke-linejoin: miter"/>
   </g>
   <g id="patch_52">
    <path d="M 466.683232 384.48 
L 473.828366 384.48 
L 473.828366 383.192195 
L 466.683232 383.192195 
z
" clip-path="url(#p1b3abe6404)" style="fill: #4c72b0; opacity: 0.4; stroke: #ffffff; stroke-linejoin: miter"/>
   </g>
   <g id="line2d_1">
    <path d="M 92.290909 384.198165 
L 94.330196 383.852116 
L 96.369484 383.158951 
L 98.408771 381.853262 
L 100.448058 379.54019 
L 102.487346 375.686184 
L 104.526633 369.64667 
L 106.565921 360.746567 
L 108.605208 348.417217 
L 110.644495 332.371895 
L 112.683783 312.778203 
L 114.72307 290.370184 
L 118.801645 242.730638 
L 120.840932 221.103836 
L 122.880219 203.284366 
L 124.919507 190.530186 
L 126.958794 183.45524 
L 128.998081 182.003747 
L 131.037369 185.574816 
L 133.076656 193.239334 
L 135.115943 203.966637 
L 137.155231 216.789171 
L 141.233805 245.50382 
L 145.31238 273.923871 
L 147.351667 286.609264 
L 149.390955 297.707615 
L 151.430242 307.005664 
L 153.469529 314.512983 
L 155.508817 320.454343 
L 157.548104 325.215838 
L 159.587392 329.260162 
L 163.665966 336.877371 
L 165.705254 340.982207 
L 173.862403 358.287581 
L 175.90169 361.720866 
L 177.940978 364.437642 
L 179.980265 366.425168 
L 182.019552 367.775086 
L 184.05884 368.656166 
L 190.176702 370.524945 
L 192.215989 371.418832 
L 194.255276 372.538599 
L 200.373138 376.274649 
L 202.412426 377.157025 
L 204.451713 377.672956 
L 206.491 377.818303 
L 208.530288 377.676325 
L 212.608862 377.161971 
L 214.64815 377.125334 
L 216.687437 377.379798 
L 218.726725 377.927571 
L 224.844587 380.230873 
L 226.883874 380.726434 
L 228.923161 380.917835 
L 230.962449 380.806271 
L 235.041023 380.017735 
L 237.080311 379.608266 
L 239.119598 379.36206 
L 241.158885 379.356317 
L 243.198173 379.602989 
L 247.276747 380.605452 
L 251.355322 381.615075 
L 253.394609 381.920505 
L 255.433897 382.062564 
L 259.512471 382.002782 
L 263.591046 381.906683 
L 267.669621 382.161913 
L 277.866058 383.52835 
L 281.944632 383.662541 
L 292.141069 383.600179 
L 298.258931 383.950422 
L 304.376793 384.298606 
L 310.494655 384.444885 
L 326.808954 384.479964 
L 349.241115 384.394916 
L 355.358977 384.180994 
L 371.673275 383.318159 
L 375.75185 383.415017 
L 381.869712 383.844012 
L 387.987574 384.252548 
L 394.105436 384.432864 
L 408.380448 384.479866 
L 459.362631 384.388176 
L 475.67693 384.038122 
L 485.873367 384.330137 
L 496.069804 384.469606 
L 498.109091 384.474961 
L 498.109091 384.474961 
" clip-path="url(#p1b3abe6404)" style="fill: none; stroke: #4c72b0; stroke-width: 1.5; stroke-linecap: round"/>
   </g>
   <g id="patch_53">
    <path d="M 115.825795 384.48 
L 513.60643 384.48 
" style="fill: none; stroke: #262626; stroke-width: 0.8; stroke-linejoin: miter; stroke-linecap: square"/>
   </g>
   <g id="text_21">
    <!-- Dmax distribution -->
    <g style="fill: #262626" transform="translate(244.2 45.84)scale(0.12 -0.12)">
     <defs>
      <path id="Arial-BoldMT-20" transform="scale(0.015625)"/>
      <path id="Arial-BoldMT-64" d="M 3503 0 
L 2688 0 
L 2688 488 
Q 2484 203 2207 64 
Q 1931 -75 1650 -75 
Q 1078 -75 670 386 
Q 263 847 263 1672 
Q 263 2516 659 2955 
Q 1056 3394 1663 3394 
Q 2219 3394 2625 2931 
L 2625 4581 
L 3503 4581 
L 3503 0 
z
M 1159 1731 
Q 1159 1200 1306 963 
Q 1519 619 1900 619 
Q 2203 619 2415 876 
Q 2628 1134 2628 1647 
Q 2628 2219 2422 2470 
Q 2216 2722 1894 2722 
Q 1581 2722 1370 2473 
Q 1159 2225 1159 1731 
z
" transform="scale(0.015625)"/>
      <path id="Arial-BoldMT-69" d="M 459 3769 
L 459 4581 
L 1338 4581 
L 1338 3769 
L 459 3769 
z
M 459 0 
L 459 3319 
L 1338 3319 
L 1338 0 
L 459 0 
z
" transform="scale(0.015625)"/>
      <path id="Arial-BoldMT-73" d="M 150 947 
L 1031 1081 
Q 1088 825 1259 692 
Q 1431 559 1741 559 
Q 2081 559 2253 684 
Q 2369 772 2369 919 
Q 2369 1019 2306 1084 
Q 2241 1147 2013 1200 
Q 950 1434 666 1628 
Q 272 1897 272 2375 
Q 272 2806 612 3100 
Q 953 3394 1669 3394 
Q 2350 3394 2681 3172 
Q 3013 2950 3138 2516 
L 2309 2363 
Q 2256 2556 2107 2659 
Q 1959 2763 1684 2763 
Q 1338 2763 1188 2666 
Q 1088 2597 1088 2488 
Q 1088 2394 1175 2328 
Q 1294 2241 1995 2081 
Q 2697 1922 2975 1691 
Q 3250 1456 3250 1038 
Q 3250 581 2869 253 
Q 2488 -75 1741 -75 
Q 1063 -75 667 200 
Q 272 475 150 947 
z
" transform="scale(0.015625)"/>
      <path id="Arial-BoldMT-74" d="M 1981 3319 
L 1981 2619 
L 1381 2619 
L 1381 1281 
Q 1381 875 1398 808 
Q 1416 741 1477 697 
Q 1538 653 1625 653 
Q 1747 653 1978 738 
L 2053 56 
Q 1747 -75 1359 -75 
Q 1122 -75 931 4 
Q 741 84 652 211 
Q 563 338 528 553 
Q 500 706 500 1172 
L 500 2619 
L 97 2619 
L 97 3319 
L 500 3319 
L 500 3978 
L 1381 4491 
L 1381 3319 
L 1981 3319 
z
" transform="scale(0.015625)"/>
      <path id="Arial-BoldMT-62" d="M 422 0 
L 422 4581 
L 1300 4581 
L 1300 2931 
Q 1706 3394 2263 3394 
Q 2869 3394 3266 2955 
Q 3663 2516 3663 1694 
Q 3663 844 3258 384 
Q 2853 -75 2275 -75 
Q 1991 -75 1714 67 
Q 1438 209 1238 488 
L 1238 0 
L 422 0 
z
M 1294 1731 
Q 1294 1216 1456 969 
Q 1684 619 2063 619 
Q 2353 619 2558 867 
Q 2763 1116 2763 1650 
Q 2763 2219 2556 2470 
Q 2350 2722 2028 2722 
Q 1713 2722 1503 2476 
Q 1294 2231 1294 1731 
z
" transform="scale(0.015625)"/>
      <path id="Arial-BoldMT-6f" d="M 256 1706 
Q 256 2144 472 2553 
Q 688 2963 1083 3178 
Q 1478 3394 1966 3394 
Q 2719 3394 3200 2905 
Q 3681 2416 3681 1669 
Q 3681 916 3195 420 
Q 2709 -75 1972 -75 
Q 1516 -75 1102 131 
Q 688 338 472 736 
Q 256 1134 256 1706 
z
M 1156 1659 
Q 1156 1166 1390 903 
Q 1625 641 1969 641 
Q 2313 641 2545 903 
Q 2778 1166 2778 1666 
Q 2778 2153 2545 2415 
Q 2313 2678 1969 2678 
Q 1625 2678 1390 2415 
Q 1156 2153 1156 1659 
z
" transform="scale(0.015625)"/>
     </defs>
     <use xlink:href="#Arial-BoldMT-44"/>
     <use xlink:href="#Arial-BoldMT-6d" x="72.216797"/>
     <use xlink:href="#Arial-BoldMT-61" x="161.132812"/>
     <use xlink:href="#Arial-BoldMT-78" x="216.748047"/>
     <use xlink:href="#Arial-BoldMT-20" x="272.363281"/>
     <use xlink:href="#Arial-BoldMT-64" x="300.146484"/>
     <use xlink:href="#Arial-BoldMT-69" x="361.230469"/>
     <use xlink:href="#Arial-BoldMT-73" x="389.013672"/>
     <use xlink:href="#Arial-BoldMT-74" x="444.628906"/>
     <use xlink:href="#Arial-BoldMT-72" x="477.929688"/>
     <use xlink:href="#Arial-BoldMT-69" x="516.845703"/>
     <use xlink:href="#Arial-BoldMT-62" x="544.628906"/>
     <use xlink:href="#Arial-BoldMT-75" x="605.712891"/>
     <use xlink:href="#Arial-BoldMT-74" x="666.796875"/>
     <use xlink:href="#Arial-BoldMT-69" x="700.097656"/>
     <use xlink:href="#Arial-BoldMT-6f" x="727.880859"/>
     <use xlink:href="#Arial-BoldMT-6e" x="788.964844"/>
    </g>
   </g>
  </g>
 </g>
 <defs>
  <clipPath id="p1b3abe6404">
   <rect x="72" y="51.84" width="446.4" height="332.64"/>
  </clipPath>
 </defs>
</svg>
